<svg width="13" height="17" viewBox="0 0 13 17" fill="none" xmlns="http://www.w3.org/2000/svg">
<path d="M1 6.69532C1 10.6869 4.33497 13.9876 5.81112 15.2532C6.0224 15.4343 6.12926 15.526 6.28687 15.5724C6.4096 15.6086 6.59024 15.6086 6.71297 15.5724C6.8709 15.5259 6.97705 15.4351 7.18912 15.2533C8.66525 13.9878 12 10.6872 12 6.69569C12 5.18514 11.4206 3.73629 10.3891 2.66817C9.3577 1.60006 7.95881 1 6.50012 1C5.04143 1 3.64238 1.60015 2.61092 2.66826C1.57947 3.73638 1 5.18478 1 6.69532Z" stroke="#574231" stroke-width="2" stroke-linecap="round" stroke-linejoin="round"/>
<path d="M4.3 6.6151C4.3 7.85561 5.28494 8.86118 6.5 8.86118C7.71506 8.86118 8.7 7.85561 8.7 6.6151C8.7 5.37462 7.71506 4.36902 6.5 4.36902C5.28494 4.36902 4.3 5.37462 4.3 6.6151Z" stroke="#574231" stroke-width="1.5" stroke-linecap="round" stroke-linejoin="round"/>
</svg>
