<svg width="47" height="43" viewBox="0 0 47 43" fill="none" xmlns="http://www.w3.org/2000/svg">
<path fill-rule="evenodd" clip-rule="evenodd" d="M9.61037 32.7991C10.4569 33.2225 11.0247 33.7991 11.3809 34.4226L15.9137 42.9061H22.6173L19.8224 37.6752C19.7013 37.5096 19.6028 37.3267 19.5315 37.1308C19.4462 36.8967 19.3998 36.6442 19.3998 36.381C19.3998 35.4446 19.9878 34.6444 20.8175 34.3241C21.0176 34.2468 21.2317 34.1975 21.4551 34.1809C21.4699 34.1798 21.4849 34.1788 21.4998 34.178C25.9779 33.1255 29.7889 30.3621 32.1925 26.6219C32.269 26.4723 32.3336 26.3166 32.3977 26.1623C32.5569 25.7788 32.7125 25.404 33.0371 25.1542C33.2498 24.9904 33.4934 24.8642 33.7576 24.7853C33.9607 24.7247 34.176 24.6921 34.3991 24.6921C34.52 24.6921 34.6388 24.7017 34.7545 24.7202C35.2927 24.8059 35.7663 25.0833 36.102 25.4794C36.2099 25.6067 36.3035 25.7462 36.3805 25.8956L47 41.7679L39.9435 24.6128C39.8475 24.4464 39.7728 24.2664 39.7229 24.0764C39.6761 23.8982 39.6512 23.7113 39.6512 23.5186C39.6512 22.9769 39.848 22.4808 40.1744 22.0968C40.2391 22.0207 40.3089 21.949 40.3833 21.8823C41.925 20.2462 42.8687 18.0485 42.8687 15.6321C42.8687 10.5765 38.7378 6.47817 33.642 6.47817C33.395 6.47817 33.1619 6.52531 32.9293 6.57235C32.6976 6.61919 32.4664 6.66594 32.2225 6.66594C32.1111 6.66594 32.0016 6.65781 31.8946 6.64211C31.4936 6.58331 31.1274 6.41832 30.8261 6.17687C30.705 6.0798 30.617 5.9679 30.5223 5.84765C30.4627 5.77187 30.4005 5.69277 30.3257 5.61198C27.1342 2.16237 22.5515 0 17.4598 0C7.81701 0 0 7.75535 0 17.3221C0 21.5977 0.0236507 25.877 0.0473051 30.1569C0.0709671 34.4383 0.0946329 38.7203 0.0946329 43H6.62431V30.9057C7.54837 31.6322 8.54829 32.2679 9.61037 32.7991ZM33.4151 18.2043C32.8847 18.1588 32.4331 17.9323 31.8913 17.9323C30.1213 17.9323 28.5981 18.9803 27.9176 20.485C27.8417 20.7326 27.757 20.9764 27.664 21.2161C27.5327 21.5546 27.3848 21.8848 27.2212 22.206C25.4204 25.7416 21.7255 28.1659 17.4598 28.1659C16.4453 28.1659 15.4632 28.0288 14.5311 27.7723C10.9616 26.7898 8.12653 24.0554 7.02561 20.5611C6.84213 19.9788 6.70682 19.3753 6.62431 18.7554C6.56188 18.2864 6.52967 17.8079 6.52967 17.3221C6.52967 17.2593 6.53021 17.1967 6.53128 17.1343C6.63229 11.232 11.4865 6.47817 17.4598 6.47817C20.9045 6.47817 23.9771 8.05915 25.9805 10.5296C26.2092 10.8117 26.4239 11.1053 26.6237 11.4095C26.7802 11.6477 26.9275 11.8923 27.0651 12.143C27.8581 13.206 29.1311 13.8952 30.5664 13.8952C31.0486 13.8952 31.5124 13.8174 31.9459 13.6739C32.3794 13.5303 32.6435 13.2087 33.064 13.1141C33.2499 13.0723 33.4433 13.0502 33.642 13.0502C33.9107 13.0502 34.1699 13.0906 34.4137 13.1656C35.4742 13.4918 36.2444 14.4727 36.2444 15.6321C36.2444 16.6011 35.7063 17.4455 34.9104 17.8871C34.5352 18.0953 34.1026 18.214 33.642 18.214C33.5655 18.214 33.4899 18.2107 33.4151 18.2043Z" fill="#90C825"/>
</svg>
