<svg width="19" height="19" viewBox="0 0 19 19" fill="none" xmlns="http://www.w3.org/2000/svg">
<path d="M9.44141 0C9.99345 0.000164811 10.4412 0.44796 10.4414 1V8.14062H17.8916C18.4436 8.14094 18.8916 8.58856 18.8916 9.14062C18.8916 9.69272 18.4436 10.1403 17.8916 10.1406H10.4414V17.2734C10.4412 17.8255 9.99344 18.2733 9.44141 18.2734C8.88923 18.2734 8.44158 17.8256 8.44141 17.2734V10.1406H1C0.447715 10.1406 2.50583e-08 9.69291 0 9.14062C2.99006e-05 8.58837 0.447734 8.14062 1 8.14062H8.44141V1C8.44157 0.447858 8.88923 -2.32531e-08 9.44141 0Z" fill="#574231"/>
</svg>
