<svg width="180" height="180" viewBox="0 0 180 180" fill="none" xmlns="http://www.w3.org/2000/svg">
<path d="M180 90C180 139.706 139.706 180 90 180C40.2944 180 0 139.706 0 90C0 40.2944 40.2944 0 90 0C139.706 0 180 40.2944 180 90Z" fill="#90C825"/>
<path d="M33.5466 140L28.5466 148.5C28.5466 148.5 56.0466 175.5 93.5466 175.5C131.047 175.5 157.047 143 157.047 143C157.047 143 152.046 141.5 152.547 139.5C153.047 137.5 157.546 141 157.047 138.5C156.547 136 143.047 122 143.047 119C143.047 116 148.547 117.5 148.547 117.5C148.547 117.5 139.547 105.5 139.547 102.5C145.547 102.5 144.547 99.9995 144.547 99.9995C139.547 94.4995 138.047 92.9995 138.047 86.4995C138.047 24.9812 103.547 30.9996 100.047 25.4995C97.2466 21.0994 91.8799 18.9994 89.5465 17.9995C90.0466 20.9995 90.5467 23.9996 89.0466 25.4995C83.0466 18.9994 74.5465 18.3327 71.0465 18.9994C73.8322 23.4237 74.0403 24.4649 74.9967 29.2505L75.0465 29.4995C71.0465 26.9995 64.8799 27.8329 62.0465 28.4995L69.0465 36.9995C69.0465 36.9995 67.8112 35.4995 65.0466 33.4995C48.5466 38.4995 42.5465 65.9995 42.5465 72.9995C42.5465 78.5995 35.5465 85.9995 35.0465 88.4996C38.5465 88.4996 40.3239 89.5835 40.0465 89.9996C35.0465 97.4995 34.5465 105.664 34.5465 114.5C34.5465 122 41.0467 113.5 40.5465 116.5C41.0465 118 31.5467 128 28.5466 140C27.462 144.338 32.0466 141 33.5466 140Z" fill="#907525"/>
<path d="M80.0466 138C45.5466 132.5 37 155 37 155C37 155 49.5 169 77.5 173.5C105.5 178 121.547 169.5 121.547 169.5C121.547 169.5 114.547 143.5 80.0466 138Z" fill="#906925"/>
<path d="M33.5464 114.5C33.5464 105.901 34.0078 97.6907 38.7885 90.1031C38.7337 90.0792 38.6735 90.0534 38.6069 90.028C37.8956 89.7568 36.7008 89.4996 35.0464 89.4996C34.7468 89.4996 34.4628 89.3651 34.2729 89.1334C34.0832 88.9018 34.0072 88.597 34.0659 88.3033C34.1575 87.8455 34.3774 87.3533 34.6284 86.8785C34.8873 86.3889 35.2193 85.845 35.5874 85.2711C35.9562 84.696 36.3743 84.0696 36.8061 83.4196C37.2402 82.7662 37.6924 82.0831 38.1391 81.3776C39.035 79.9627 39.8947 78.4836 40.5288 77.0319C41.1664 75.5721 41.5464 74.2046 41.5464 72.9996C41.5464 69.3386 43.0852 60.5798 46.6889 52.108C50.2046 43.8432 55.8232 35.5286 64.2212 32.7135L61.2749 29.1354C61.0553 28.8687 60.9888 28.5076 61.0991 28.1803C61.2096 27.8529 61.4815 27.6051 61.8178 27.526C63.2902 27.1796 65.6221 26.7904 68.1176 26.8121C69.9252 26.8278 71.8785 27.0614 73.6665 27.7242C73.3707 26.3056 73.1268 25.3073 72.769 24.3356C72.2868 23.0261 71.5854 21.7312 70.2007 19.5319C70.0246 19.2521 69.9975 18.9033 70.1294 18.6002C70.2613 18.2972 70.5352 18.0791 70.8598 18.0172C74.4326 17.3369 82.6488 17.9449 88.854 23.8776C88.9804 23.4622 89.0464 22.946 89.0464 22.3121C89.0463 21.099 88.8139 19.6864 88.56 18.1637C88.5001 17.8033 88.6418 17.4392 88.9292 17.2135C89.2166 16.9878 89.604 16.9369 89.9399 17.0807C92.2001 18.0493 97.8935 20.2537 100.89 24.9625C101.132 25.3425 101.755 25.7571 103.038 26.2408C104.281 26.7097 105.849 27.1454 107.76 27.7457C111.523 28.9277 116.295 30.6552 120.963 34.1959C130.361 41.3226 139.046 55.5534 139.046 86.4996C139.046 89.6702 139.413 91.4836 140.304 93.1539C140.999 94.4573 142.026 95.707 143.567 97.4283L145.287 99.3268L145.343 99.3961C145.397 99.4673 145.442 99.5454 145.475 99.6285L144.546 99.9996C145.475 99.6282 145.476 99.6295 145.476 99.6305V99.6324C145.477 99.6337 145.477 99.635 145.478 99.6364C145.479 99.6392 145.481 99.642 145.482 99.6451C145.484 99.6515 145.487 99.6588 145.49 99.6666C145.495 99.6824 145.501 99.7018 145.508 99.7233C145.522 99.766 145.538 99.8202 145.552 99.8844C145.581 100.012 145.609 100.185 145.609 100.39C145.609 100.811 145.493 101.356 145.078 101.875C144.391 102.732 143.072 103.308 140.796 103.459C140.817 103.514 140.838 103.574 140.862 103.634C141.087 104.199 141.419 104.875 141.831 105.63C142.654 107.139 143.76 108.892 144.878 110.57C145.995 112.244 147.112 113.828 147.952 114.994C148.371 115.576 148.721 116.054 148.965 116.385C149.087 116.551 149.183 116.68 149.248 116.767C149.28 116.811 149.305 116.845 149.322 116.867C149.33 116.878 149.336 116.887 149.34 116.892C149.342 116.895 149.344 116.897 149.345 116.898L149.346 116.899C149.602 117.241 149.614 117.709 149.374 118.062C149.163 118.371 148.802 118.533 148.439 118.494L148.284 118.464L148.276 118.463C148.268 118.46 148.255 118.457 148.238 118.453C148.203 118.444 148.151 118.431 148.082 118.415C147.946 118.383 147.747 118.34 147.508 118.297C147.024 118.209 146.401 118.125 145.796 118.125C145.167 118.125 144.681 118.216 144.385 118.378C144.252 118.45 144.179 118.525 144.136 118.595C144.094 118.664 144.046 118.783 144.046 119C144.046 119.018 144.056 119.121 144.136 119.339C144.212 119.545 144.333 119.804 144.504 120.116C144.846 120.739 145.349 121.505 145.976 122.378C147.228 124.121 148.912 126.207 150.632 128.302C152.342 130.385 154.09 132.481 155.436 134.205C156.109 135.067 156.696 135.854 157.134 136.514C157.353 136.844 157.544 137.155 157.692 137.437C157.832 137.705 157.967 138.006 158.027 138.303C158.106 138.698 158.137 139.19 157.906 139.637C157.638 140.155 157.162 140.359 156.775 140.418C156.423 140.471 156.064 140.423 155.785 140.369C155.491 140.312 155.181 140.228 154.904 140.151C154.295 139.982 153.851 139.859 153.527 139.851C153.55 139.925 153.611 140.039 153.766 140.204C154.053 140.508 154.518 140.822 155.075 141.115C155.618 141.401 156.185 141.634 156.623 141.797C156.84 141.878 157.021 141.94 157.147 141.982C157.21 142.003 157.258 142.019 157.29 142.029C157.306 142.034 157.318 142.037 157.326 142.04C157.329 142.041 157.332 142.042 157.333 142.043L157.45 142.086C157.712 142.201 157.915 142.425 158.001 142.703C158.1 143.02 158.035 143.365 157.828 143.625L157.046 143.001C157.794 143.598 157.826 143.624 157.827 143.626L157.826 143.628C157.825 143.629 157.823 143.63 157.821 143.632C157.817 143.637 157.812 143.644 157.805 143.653C157.791 143.67 157.771 143.695 157.745 143.727C157.692 143.792 157.613 143.885 157.511 144.007C157.306 144.252 157.004 144.607 156.606 145.058C155.81 145.96 154.635 147.244 153.108 148.783C150.055 151.859 145.593 155.959 139.947 160.059C128.666 168.252 112.586 176.5 93.5464 176.5C74.5594 176.5 58.1336 169.667 46.48 162.864C40.649 159.46 35.9997 156.055 32.8052 153.5C31.2075 152.222 29.9719 151.155 29.1343 150.406C28.7157 150.031 28.3963 149.736 28.1801 149.533C28.0721 149.431 27.9899 149.352 27.9341 149.298C27.9062 149.272 27.8843 149.251 27.8696 149.237L27.8471 149.214C27.8492 149.212 27.889 149.17 28.5464 148.501L27.8462 149.214C27.5187 148.892 27.4523 148.388 27.685 147.993L30.726 142.822C30.6179 142.866 30.5117 142.909 30.4067 142.946C30.0549 143.068 29.6582 143.167 29.2622 143.17C28.8582 143.172 28.3718 143.071 27.976 142.701C27.5829 142.333 27.4272 141.837 27.3911 141.362C27.3553 140.891 27.4278 140.353 27.5766 139.757C29.1169 133.597 32.3129 127.986 35.0171 123.772C35.6947 122.716 36.3443 121.744 36.9302 120.873C37.5188 119.997 38.0375 119.231 38.4653 118.572C38.7166 118.185 38.9268 117.847 39.0971 117.556C38.8166 117.727 38.5098 117.912 38.1958 118.075C37.7717 118.295 37.2846 118.51 36.7846 118.616C36.2828 118.723 35.6778 118.739 35.102 118.447C34.5121 118.148 34.1208 117.612 33.8843 116.955C33.6529 116.312 33.5464 115.495 33.5464 114.5ZM68.2749 37.6344L68.2759 37.6364H68.2749V37.6354L68.2661 37.6246C68.2592 37.6165 68.2488 37.6045 68.2348 37.5885C68.202 37.5508 68.1494 37.4913 68.0766 37.4127C67.9312 37.2555 67.7046 37.0208 67.393 36.7233C66.834 36.1893 65.9993 35.4547 64.8647 34.608C57.3112 37.1376 51.9922 44.7492 48.5288 52.8912C45.0075 61.1693 43.5464 69.6607 43.5464 72.9996C43.5464 74.5945 43.0522 76.252 42.3618 77.8326C41.6678 79.4216 40.7452 80.9992 39.8286 82.4469C39.3691 83.1725 38.9071 83.8723 38.4721 84.527C38.035 85.185 37.6286 85.7926 37.271 86.3502C36.9808 86.8026 36.7318 87.2093 36.5307 87.568C37.6803 87.6729 38.6171 87.8914 39.3188 88.1588C39.7993 88.342 40.2276 88.5688 40.5346 88.8385C40.6833 88.9691 40.867 89.1647 40.978 89.4313C41.1032 89.7322 41.1404 90.1614 40.8784 90.5543C36.0585 97.7842 35.5464 105.676 35.5464 114.5C35.5464 115.379 35.644 115.938 35.7661 116.277C35.8829 116.601 35.9945 116.656 36.0063 116.662C36.032 116.675 36.1265 116.71 36.3686 116.659C36.6128 116.607 36.9157 116.485 37.2729 116.299C37.6257 116.116 37.9818 115.897 38.3432 115.674C38.6826 115.465 39.0599 115.231 39.3882 115.074C39.5527 114.995 39.7564 114.91 39.9731 114.865C40.1745 114.823 40.5373 114.783 40.9028 114.978C41.3146 115.198 41.4861 115.579 41.5434 115.876C41.5834 116.083 41.5795 116.293 41.5581 116.485C41.5831 116.744 41.5362 116.978 41.4927 117.139C41.4256 117.387 41.3161 117.644 41.1938 117.891C40.9482 118.388 40.5787 118.991 40.143 119.662C39.7038 120.338 39.1714 121.124 38.5903 121.988C38.0064 122.857 37.3666 123.815 36.7007 124.852C34.03 129.013 30.9769 134.403 29.5171 140.242C29.407 140.682 29.3793 140.975 29.3843 141.155C29.4747 141.139 29.5955 141.111 29.7485 141.057C30.7924 140.694 32.1713 139.715 32.9917 139.168C33.3795 138.909 33.8951 138.953 34.2339 139.273C34.5724 139.593 34.6448 140.105 34.4087 140.506L29.8139 148.317C29.9918 148.481 30.2091 148.683 30.4682 148.915C31.281 149.642 32.4877 150.685 34.0542 151.938C37.1878 154.445 41.7574 157.791 47.4887 161.136C58.96 167.833 75.0338 174.5 93.5464 174.5C112.006 174.5 127.677 166.498 138.771 158.441C144.312 154.417 148.694 150.391 151.688 147.374C153.184 145.866 154.333 144.61 155.106 143.735C155.195 143.634 155.278 143.537 155.357 143.447C154.981 143.292 154.56 143.104 154.143 142.884C153.513 142.552 152.822 142.117 152.312 141.577C151.805 141.04 151.333 140.233 151.577 139.257L151.628 139.082C151.766 138.682 152.021 138.346 152.395 138.125C152.787 137.893 153.211 137.846 153.547 137.851C154.19 137.862 154.93 138.082 155.439 138.223C155.613 138.272 155.769 138.313 155.91 138.347C155.806 138.151 155.66 137.908 155.468 137.62C155.072 137.024 154.522 136.284 153.86 135.435C152.534 133.737 150.814 131.676 149.086 129.572C147.369 127.48 145.646 125.347 144.351 123.544C143.705 122.643 143.149 121.803 142.75 121.077C142.551 120.714 142.382 120.361 142.26 120.032C142.143 119.714 142.046 119.356 142.046 119C142.046 118.467 142.17 117.976 142.429 117.552C142.687 117.131 143.045 116.83 143.427 116.622C144.162 116.221 145.051 116.125 145.796 116.125C145.97 116.125 146.143 116.13 146.312 116.139C145.466 114.964 144.341 113.369 143.214 111.679C142.083 109.982 140.939 108.172 140.075 106.588C139.643 105.796 139.271 105.043 139.004 104.377C138.749 103.739 138.546 103.075 138.546 102.5C138.546 101.947 138.994 101.5 139.546 101.5C142.489 101.5 143.319 100.871 143.516 100.625C143.573 100.553 143.593 100.493 143.602 100.447C141.249 97.8608 139.583 96.051 138.54 94.0953C137.43 92.0157 137.046 89.8291 137.046 86.4996C137.046 55.9276 128.482 42.4084 119.754 35.7897C115.361 32.4578 110.851 30.8129 107.161 29.6539C105.346 29.084 103.644 28.6069 102.332 28.1119C101.058 27.6318 99.8358 27.0318 99.2026 26.0367C97.1054 22.7411 93.4271 20.8055 90.8178 19.6383C90.9484 20.5517 91.0463 21.4636 91.0464 22.3121C91.0464 23.7093 90.7886 25.1716 89.7534 26.2067C89.561 26.399 89.2988 26.505 89.0268 26.4996C88.7549 26.4942 88.4965 26.3781 88.312 26.1783C83.3386 20.7904 76.5401 19.6189 72.7221 19.8141C73.6265 21.3205 74.2096 22.4591 74.646 23.6442C75.1982 25.1439 75.5035 26.6849 75.977 29.0543L76.0268 29.3033C76.1051 29.6947 75.943 30.095 75.6147 30.3219C75.2864 30.5488 74.8545 30.5588 74.5161 30.3473C72.7403 29.2376 70.412 28.8322 68.1001 28.8121C66.5703 28.7988 65.0976 28.9558 63.8823 29.1559L69.8188 36.3639C70.1697 36.7902 70.1082 37.4201 69.6821 37.7711C69.2558 38.1222 68.626 38.0615 68.2749 37.6354V37.6344Z" fill="black"/>
<path d="M104.5 91L116.047 111" stroke="black" stroke-width="3" stroke-linecap="round" stroke-linejoin="round"/>
<path d="M110 101C111 102 104.308 114.311 106.5 126C108.53 136.826 106.253 144.532 103.294 151C99.6944 158.87 95.0854 164.907 96.0002 172.5C96.0002 172.5 111.5 172 125 166C138.5 160 140.5 149 140.5 149C143.3 121.4 122.333 105.167 110 101Z" fill="#906925" stroke="black" stroke-width="2" stroke-linecap="round" stroke-linejoin="round"/>
<path d="M169 90C169 46.3695 133.63 11 90 11C46.3695 11 11 46.3695 11 90C11 133.63 46.3695 169 90 169V180C40.2944 180 0 139.706 0 90C0 40.2944 40.2944 0 90 0C139.706 0 180 40.2944 180 90C180 139.706 139.706 180 90 180V169C133.63 169 169 133.63 169 90Z" fill="white"/>
<path d="M76.546 76.9999C81.5453 80.9999 87.5466 88.4995 88.0466 90.4995C32.5466 97.4995 15.2965 136 13.0465 128.5C11.5466 117 46.7126 89.1666 65.546 76.9999C65.546 76.9999 71.5466 72.9999 76.546 76.9999Z" fill="#FFE491"/>
<path d="M88.0466 90.4995L88.1718 91.4917C88.4555 91.4559 88.7103 91.3003 88.8719 91.0643C89.0334 90.8283 89.0861 90.5344 89.0168 90.257L88.0466 90.4995ZM76.546 76.9999L75.9212 77.7808V77.7808L76.546 76.9999ZM65.546 76.9999L66.0886 77.8399L66.0946 77.836L66.1006 77.832L65.546 76.9999ZM13.0465 128.5L12.0549 128.629L12.0654 128.71L12.0887 128.787L13.0465 128.5ZM88.0466 90.4995L89.0168 90.257C88.9225 89.8801 88.7241 89.4539 88.4908 89.0284C88.249 88.5877 87.9357 88.0869 87.569 87.5471C86.8349 86.4664 85.8606 85.1899 84.7517 83.8595C82.5389 81.2046 79.7409 78.2755 77.1707 76.2191L76.546 76.9999L75.9212 77.7808C78.3504 79.7244 81.0527 82.5451 83.2154 85.14C84.2943 86.4344 85.2264 87.6578 85.9145 88.6708C86.2589 89.1778 86.5355 89.6224 86.7372 89.9901C86.9473 90.3733 87.0457 90.619 87.0765 90.742L88.0466 90.4995ZM76.546 76.9999L77.1707 76.2191C74.3513 73.9633 71.2502 73.9835 68.9422 74.5265C67.7892 74.7978 66.8117 75.2029 66.1233 75.5387C65.7778 75.7072 65.5018 75.8599 65.3091 75.9724C65.2127 76.0288 65.1369 76.0752 65.0834 76.1087C65.0566 76.1255 65.0354 76.1391 65.02 76.1491C65.0123 76.154 65.0061 76.1581 65.0013 76.1613C64.9989 76.1629 64.9968 76.1642 64.9952 76.1653C64.9943 76.1658 64.9936 76.1663 64.993 76.1668C64.9926 76.167 64.9922 76.1673 64.9921 76.1674C64.9917 76.1676 64.9913 76.1679 65.546 76.9999C66.1006 77.832 66.1003 77.8322 66.1 77.8324C66.0999 77.8325 66.0997 77.8327 66.0995 77.8328C66.0992 77.8329 66.099 77.8331 66.0989 77.8331C66.0987 77.8333 66.0989 77.8332 66.0994 77.8328C66.1004 77.8322 66.1028 77.8306 66.1066 77.8281C66.1142 77.8232 66.1273 77.8148 66.1458 77.8033C66.1826 77.7801 66.2406 77.7446 66.318 77.6993C66.473 77.6088 66.7048 77.4802 67.0001 77.3362C67.593 77.047 68.4281 76.7021 69.4002 76.4734C71.3424 76.0164 73.7413 76.0366 75.9212 77.7808L76.546 76.9999ZM65.546 76.9999L65.0033 76.16C55.5468 82.2691 42.0031 92.3014 31.0003 102.258C25.5013 107.235 20.6074 112.219 17.1742 116.705C15.458 118.947 14.0858 121.092 13.1885 123.071C12.2969 125.038 11.8332 126.93 12.0549 128.629L13.0465 128.5L14.0381 128.371C13.8848 127.195 14.1919 125.702 15.01 123.897C15.8223 122.106 17.0985 120.094 18.7625 117.92C22.0896 113.573 26.883 108.682 32.3423 103.741C43.2558 93.8651 56.7118 83.8975 66.0886 77.8399L65.546 76.9999ZM13.0465 128.5L12.0887 128.787C12.2603 129.359 12.5762 129.976 13.212 130.285C13.861 130.601 14.5294 130.447 15.0402 130.223C15.5611 129.995 16.1112 129.612 16.676 129.156C17.2507 128.691 17.8925 128.107 18.599 127.435C21.442 124.731 25.4851 120.46 31.2161 115.707C42.6385 106.235 60.6536 94.9624 88.1718 91.4917L88.0466 90.4995L87.9215 89.5074C59.9396 93.0366 41.5797 104.515 29.9395 114.167C24.1392 118.977 19.9791 123.362 17.2206 125.986C16.5267 126.646 15.9307 127.187 15.4188 127.6C14.8971 128.022 14.5118 128.271 14.2373 128.392C13.9527 128.516 13.9656 128.428 14.0876 128.487C14.1964 128.54 14.1139 128.578 14.0043 128.213L13.0465 128.5Z" fill="black"/>
<path d="M83.5466 95.9995C88.6246 94.0465 88.38 91.3328 88.0466 90.4995C79.0464 92.4995 59.0466 92.4995 29.5469 116.5C57.5466 97.4995 77.0466 98.4995 83.5466 95.9995Z" fill="#FFE491"/>
<path d="M88.0466 90.4995L88.9751 90.1281C88.7931 89.6731 88.3081 89.417 87.8297 89.5233L88.0466 90.4995ZM83.5466 95.9995L83.1877 95.0662V95.0662L83.5466 95.9995ZM29.5469 116.5L28.9158 115.724L30.1084 117.327L29.5469 116.5ZM88.0466 90.4995L87.1182 90.8709C87.1909 91.0527 87.3197 91.6327 86.938 92.3696C86.5554 93.1079 85.5864 94.1436 83.1877 95.0662L83.5466 95.9995L83.9056 96.9329C86.5849 95.9024 88.0325 94.6047 88.7138 93.2896C89.3958 91.9731 89.2357 90.7796 88.9751 90.1281L88.0466 90.4995ZM83.5466 95.9995L83.1877 95.0662C81.6781 95.6467 79.367 96.0361 76.1326 96.6003C72.9479 97.1559 68.9905 97.865 64.3527 99.0955C55.0674 101.559 43.0873 106.103 28.9854 115.672L29.5469 116.5L30.1084 117.327C44.0062 107.896 55.776 103.44 64.8656 101.029C69.4153 99.8215 73.3016 99.1244 76.4763 98.5706C79.6013 98.0254 82.1651 97.6023 83.9056 96.9329L83.5466 95.9995ZM29.5469 116.5L30.178 117.275C44.8373 105.349 57.1056 99.4092 66.7985 96.1988C76.5653 92.9639 83.5786 92.5168 88.2636 91.4757L88.0466 90.4995L87.8297 89.5233C83.5144 90.4822 76.0277 91.0351 66.1697 94.3002C56.2376 97.5898 43.7562 103.65 28.9158 115.724L29.5469 116.5Z" fill="black"/>
<path d="M96.5466 72.4995C99.8519 72.4995 102.532 75.1721 102.546 78.4741C102.005 78.3722 101.387 78.2048 100.398 77.9849C99.3187 77.7449 97.9919 77.5005 96.5466 77.5005C95.1014 77.5005 93.7745 77.7449 92.6951 77.9849C91.7054 78.2049 91.0874 78.3722 90.5466 78.4741C90.5603 75.1721 93.2414 72.4995 96.5466 72.4995Z" fill="#D9D9D9" stroke="black" stroke-width="5"/>
<mask id="path-13-inside-1_3174_58" fill="white">
<path d="M63.0466 77.4995C63.0466 82.1939 59.2411 72.4995 54.5466 72.4995C49.8522 72.4995 46.0466 82.1939 46.0466 77.4995C46.0466 72.8051 49.8522 68.9995 54.5466 68.9995C59.2411 68.9995 63.0466 72.8051 63.0466 77.4995Z"/>
</mask>
<path d="M63.0466 77.4995C63.0466 82.1939 59.2411 72.4995 54.5466 72.4995C49.8522 72.4995 46.0466 82.1939 46.0466 77.4995C46.0466 72.8051 49.8522 68.9995 54.5466 68.9995C59.2411 68.9995 63.0466 72.8051 63.0466 77.4995Z" fill="#D9D9D9"/>
<path d="M63.0466 77.4995H58.0466C58.0466 77.6506 58.0372 77.6092 58.062 77.4497C58.0754 77.3632 58.1657 76.7439 58.6144 76.014C59.1697 75.1107 60.329 74.0075 62.1193 73.8111C63.5754 73.6514 64.5993 74.2071 64.8814 74.3702C65.4313 74.6882 65.6399 74.9999 65.3083 74.6322C65.083 74.3823 64.8247 74.0683 64.3904 73.5497C63.6323 72.6444 62.4488 71.2439 61.0293 70.0776C59.6668 68.9581 57.4307 67.4995 54.5466 67.4995V72.4995V77.4995C54.0097 77.4995 54.0098 77.2527 54.6811 77.8042C55.2955 78.309 55.9436 79.0386 56.7237 79.9701C57.0585 80.37 57.4959 80.901 57.8816 81.3287C58.161 81.6386 58.8959 82.4606 59.8759 83.0272C60.373 83.3147 61.588 83.9294 63.2096 83.7515C65.1655 83.537 66.465 82.3384 67.1335 81.251C67.6954 80.3369 67.8721 79.4445 67.9435 78.9842C68.0263 78.451 68.0466 77.9352 68.0466 77.4995H63.0466ZM54.5466 72.4995V67.4995C51.6625 67.4995 49.4265 68.9581 48.064 70.0776C46.6444 71.2439 45.461 72.6444 44.7029 73.5497C44.2686 74.0683 44.0103 74.3823 43.7849 74.6322C43.4533 74.9999 43.6619 74.6882 44.2118 74.3702C44.4939 74.2071 45.5178 73.6514 46.9739 73.8111C48.7643 74.0075 49.9236 75.1107 50.4788 76.014C50.9275 76.7439 51.0179 77.3632 51.0313 77.4497C51.0561 77.6092 51.0466 77.6506 51.0466 77.4995H46.0466H41.0466C41.0466 77.9352 41.0669 78.451 41.1497 78.9842C41.2212 79.4445 41.3979 80.3369 41.9598 81.251C42.6283 82.3384 43.9277 83.537 45.8836 83.7515C47.5053 83.9294 48.7202 83.3147 49.2174 83.0272C50.1974 82.4606 50.9323 81.6386 51.2117 81.3287C51.5973 80.901 52.0347 80.37 52.3696 79.9701C53.1497 79.0386 53.7978 78.309 54.4121 77.8042C55.0834 77.2527 55.0835 77.4995 54.5466 77.4995V72.4995ZM46.0466 77.4995H51.0466C51.0466 75.5665 52.6136 73.9995 54.5466 73.9995V68.9995V63.9995C47.0908 63.9995 41.0466 70.0437 41.0466 77.4995H46.0466ZM54.5466 68.9995V73.9995C56.4796 73.9995 58.0466 75.5665 58.0466 77.4995H63.0466H68.0466C68.0466 70.0437 62.0025 63.9995 54.5466 63.9995V68.9995Z" fill="black" mask="url(#path-13-inside-1_3174_58)"/>
<path d="M96.5 61.5C104.784 61.5 111.5 68.2157 111.5 76.5C111.5 84.7843 104.784 91.5 96.5 91.5C88.2157 91.5 81.5 84.7843 81.5 76.5C81.5 68.2157 88.2157 61.5 96.5 61.5Z" fill="white" fill-opacity="0.5" stroke="black" stroke-width="3"/>
</svg>
