<svg width="33" height="28" viewBox="0 0 33 28" fill="none" xmlns="http://www.w3.org/2000/svg">
<path d="M30.5659 13.3175C31.022 13.957 31.25 14.2767 31.25 14.75C31.25 15.2233 31.022 15.543 30.5659 16.1825C28.5169 19.0558 23.2838 25.25 16.25 25.25C9.21617 25.25 3.98315 19.0558 1.93406 16.1825C1.47802 15.543 1.25 15.2233 1.25 14.75C1.25 14.2767 1.47802 13.957 1.93406 13.3175C3.98314 10.4442 9.21617 4.25 16.25 4.25C23.2838 4.25 28.5169 10.4442 30.5659 13.3175Z" stroke="#ABA098" stroke-width="2.5"/>
<path d="M20.75 14.75C20.75 12.2647 18.7353 10.25 16.25 10.25C13.7647 10.25 11.75 12.2647 11.75 14.75C11.75 17.2353 13.7647 19.25 16.25 19.25C18.7353 19.25 20.75 17.2353 20.75 14.75Z" stroke="#ABA098" stroke-width="2.5"/>
<path d="M6.25 1.25L30.25 25.25" stroke="white" stroke-width="2.5" stroke-linecap="round"/>
<path d="M5.25 3.25L27.75 25.75" stroke="#ABA098" stroke-width="3" stroke-linecap="round"/>
</svg>
