<svg width="55" height="57" viewBox="0 0 55 57" fill="none" xmlns="http://www.w3.org/2000/svg">
<path d="M28.0616 10.8504C33.3309 10.8504 36.8853 13.1264 38.912 15.0284L46.8315 7.29593C41.9676 2.77495 35.6382 0 28.0616 0C17.0865 0 7.60806 6.29819 2.99353 15.4649L12.0667 22.5114C14.3428 15.7455 20.641 10.8504 28.0616 10.8504Z" fill="#EA4335"/>
<path d="M55 28.685C55 26.3777 54.8129 24.694 54.4076 22.948H28.0612V33.3618H43.5261C43.2143 35.9497 41.5306 39.8471 37.7891 42.4662L46.644 49.3256C51.9444 44.4304 55 37.2281 55 28.685Z" fill="#4285F4"/>
<path d="M12.0975 33.6111C11.5051 31.8651 11.1622 29.9943 11.1622 28.0612C11.1622 26.1281 11.5051 24.2574 12.0664 22.5113L2.99321 15.4648C1.09127 19.2687 0 23.5402 0 28.0612C0 32.5822 1.09127 36.8538 2.99321 40.6576L12.0975 33.6111Z" fill="#FBBC05"/>
<path d="M28.0617 56.1227C35.6382 56.1227 41.9988 53.6284 46.6445 49.3256L37.7896 42.4662C35.42 44.1187 32.2397 45.2723 28.0617 45.2723C20.641 45.2723 14.3428 40.3772 12.0979 33.6113L3.02478 40.6578C7.63931 49.8245 17.0866 56.1227 28.0617 56.1227Z" fill="#34A853"/>
</svg>
