<?xml version="1.0" encoding="UTF-8" standalone="no"?>
<svg
   width="13"
   height="17"
   viewBox="0 0 13 17"
   fill="none"
   version="1.1"
   id="svg2"
   sodipodi:docname="location-pin-icon.svg"
   inkscape:version="1.4 (e7c3feb1, 2024-10-09)"
   xmlns:inkscape="http://www.inkscape.org/namespaces/inkscape"
   xmlns:sodipodi="http://sodipodi.sourceforge.net/DTD/sodipodi-0.dtd"
   xmlns="http://www.w3.org/2000/svg"
   xmlns:svg="http://www.w3.org/2000/svg">
  <defs
     id="defs2" />
  <sodipodi:namedview
     id="namedview2"
     pagecolor="#ffffff"
     bordercolor="#000000"
     borderopacity="0.25"
     inkscape:showpageshadow="2"
     inkscape:pageopacity="0.0"
     inkscape:pagecheckerboard="0"
     inkscape:deskcolor="#d1d1d1"
     inkscape:zoom="14.896428"
     inkscape:cx="5.034764"
     inkscape:cy="8.8611846"
     inkscape:window-width="1200"
     inkscape:window-height="1051"
     inkscape:window-x="0"
     inkscape:window-y="38"
     inkscape:window-maximized="0"
     inkscape:current-layer="svg2" />
  <path
     d="m 1.0009534,5.3581465 c 0,3.0537758 2.5202932,5.5789905 3.6358446,6.5472435 0.1596679,0.138552 0.2404238,0.208707 0.3595324,0.244206 0.092749,0.02769 0.2292618,0.02769 0.3220109,0 0.1193504,-0.03558 0.1995697,-0.105042 0.3598346,-0.244129 1.1155364,-0.968177 3.6356633,-3.4933152 3.6356633,-6.5470374 0,-1.1556529 -0.4378624,-2.264102 -1.2173843,-3.0812719 C 7.3170085,1.4599955 6.2598437,1.000917 5.157487,1.000917 4.0551303,1.000917 2.9978446,1.4600644 2.2183529,2.2772266 1.4388687,3.0943965 1.0009534,4.2025013 1.0009534,5.3581465 Z"
     stroke="#574231"
     stroke-width="2"
     stroke-linecap="round"
     stroke-linejoin="round"
     id="path1"
     style="stroke-width:1.57388196;stroke-dasharray:none" />
  <path
     d="m 3.4948191,5.2967739 c 0,0.9490576 0.7443358,1.7183733 1.6625772,1.7183733 0.9182414,0 1.6625772,-0.7693157 1.6625772,-1.7183733 0,-0.9490347 -0.7443358,-1.7183734 -1.6625772,-1.7183734 -0.9182414,0 -1.6625772,0.7693387 -1.6625772,1.7183734 z"
     stroke="#574231"
     stroke-width="1.5"
     stroke-linecap="round"
     stroke-linejoin="round"
     id="path2"
     style="stroke-width:1.18041123;stroke-dasharray:none" />
</svg>
