<svg width="33" height="24" viewBox="0 0 33 24" fill="none" xmlns="http://www.w3.org/2000/svg">
<path d="M30.5659 10.3175C31.022 10.957 31.25 11.2767 31.25 11.75C31.25 12.2233 31.022 12.543 30.5659 13.1825C28.5169 16.0558 23.2838 22.25 16.25 22.25C9.21617 22.25 3.98315 16.0558 1.93406 13.1825C1.47802 12.543 1.25 12.2233 1.25 11.75C1.25 11.2767 1.47802 10.957 1.93406 10.3175C3.98314 7.44416 9.21617 1.25 16.25 1.25C23.2838 1.25 28.5169 7.44416 30.5659 10.3175Z" stroke="#ABA098" stroke-width="2.5"/>
<path d="M20.75 11.75C20.75 9.26472 18.7353 7.25 16.25 7.25C13.7647 7.25 11.75 9.26472 11.75 11.75C11.75 14.2353 13.7647 16.25 16.25 16.25C18.7353 16.25 20.75 14.2353 20.75 11.75Z" stroke="#ABA098" stroke-width="2.5"/>
</svg>
