<svg width="47" height="47" viewBox="0 0 47 47" fill="none" xmlns="http://www.w3.org/2000/svg">
<rect width="47" height="47" rx="23.5" fill="#90C825"/>
<path fill-rule="evenodd" clip-rule="evenodd" d="M16.349 29.9668C16.8883 30.2385 17.25 30.6084 17.4769 31.0085L20.3644 36.4519H24.6348L22.8544 33.0955C22.7772 32.9892 22.7145 32.8719 22.6691 32.7462C22.6148 32.596 22.5852 32.434 22.5852 32.2651C22.5852 31.6642 22.9598 31.1508 23.4883 30.9453C23.6158 30.8957 23.7522 30.8641 23.8945 30.8534C23.9039 30.8527 23.9135 30.8521 23.923 30.8516C26.7757 30.1762 29.2034 28.4031 30.7346 26.0032C30.7833 25.9072 30.8245 25.8073 30.8653 25.7083C30.9668 25.4622 31.0659 25.2217 31.2727 25.0614C31.4082 24.9564 31.5633 24.8754 31.7316 24.8248C31.861 24.7859 31.9982 24.765 32.1403 24.765C32.2174 24.765 32.293 24.7711 32.3667 24.783C32.7095 24.838 33.0112 25.0159 33.2251 25.2701C33.2938 25.3518 33.3535 25.4413 33.4025 25.5372L40.1675 35.7216L35.6723 24.7141C35.6112 24.6073 35.5635 24.4918 35.5318 24.3699C35.502 24.2556 35.4861 24.1356 35.4861 24.012C35.4861 23.6644 35.6114 23.3461 35.8194 23.0997C35.8606 23.0509 35.9051 23.0049 35.9524 22.962C36.9346 21.9123 37.5358 20.5021 37.5358 18.9516C37.5358 15.7078 34.9042 13.0781 31.658 13.0781C31.5007 13.0781 31.3522 13.1083 31.204 13.1385C31.0564 13.1686 30.9091 13.1986 30.7537 13.1986C30.6828 13.1986 30.613 13.1933 30.5448 13.1833C30.2894 13.1455 30.0561 13.0397 29.8642 12.8847C29.787 12.8225 29.7309 12.7507 29.6707 12.6735C29.6327 12.6249 29.593 12.5741 29.5454 12.5223C27.5123 10.3089 24.593 8.92139 21.3493 8.92139C15.2065 8.92139 10.2268 13.8976 10.2268 20.036C10.2268 22.7794 10.2419 25.5252 10.2569 28.2714C10.272 31.0185 10.2871 33.7661 10.2871 36.5121H14.4467V28.7519C15.0354 29.218 15.6724 29.6259 16.349 29.9668ZM31.5134 20.6021C31.1756 20.5729 30.8879 20.4276 30.5427 20.4276C29.4152 20.4276 28.4449 21.1 28.0114 22.0655C27.963 22.2243 27.909 22.3808 27.8498 22.5346C27.7661 22.7518 27.6719 22.9637 27.5677 23.1697C26.4206 25.4384 24.0667 26.9939 21.3493 26.9939C20.7031 26.9939 20.0774 26.906 19.4837 26.7413C17.2098 26.1109 15.4037 24.3564 14.7024 22.1143C14.5855 21.7407 14.4993 21.3535 14.4467 20.9557C14.407 20.6548 14.3865 20.3478 14.3865 20.036C14.3865 19.9958 14.3868 19.9556 14.3875 19.9155C14.4518 16.1283 17.5441 13.0781 21.3493 13.0781C23.5438 13.0781 25.5011 14.0925 26.7773 15.6777C26.923 15.8586 27.0598 16.047 27.1871 16.2422C27.2868 16.3951 27.3806 16.5521 27.4683 16.7129C27.9734 17.395 28.7844 17.8372 29.6988 17.8372C30.0059 17.8372 30.3014 17.7873 30.5775 17.6951C30.8537 17.603 31.0219 17.3967 31.2898 17.336C31.4082 17.3092 31.5315 17.295 31.658 17.295C31.8292 17.295 31.9943 17.3209 32.1496 17.369C32.8252 17.5784 33.3158 18.2077 33.3158 18.9516C33.3158 19.5734 32.9731 20.1152 32.4661 20.3985C32.227 20.5321 31.9514 20.6083 31.658 20.6083C31.6093 20.6083 31.5611 20.6062 31.5134 20.6021Z" fill="#2D2C28"/>
</svg>
