<svg width="20" height="19" viewBox="0 0 20 19" fill="none" xmlns="http://www.w3.org/2000/svg">
<path d="M9.17367 1.02647C9.43547 0.441354 9.56643 0.148797 9.74873 0.0587052C9.90705 -0.0195684 10.093 -0.0195684 10.2513 0.0587052C10.4336 0.148797 10.5646 0.441354 10.8264 1.02647L12.9117 5.68699C12.9892 5.85996 13.0279 5.94644 13.0878 6.01267C13.1407 6.07128 13.2055 6.11815 13.2778 6.15024C13.3596 6.18651 13.4541 6.19645 13.6432 6.21632L18.7371 6.7519C19.3766 6.81914 19.6963 6.85275 19.8387 6.99762C19.9623 7.12344 20.0197 7.29964 19.9939 7.47385C19.9643 7.67438 19.7255 7.88876 19.2478 8.31765L15.4427 11.7336C15.3015 11.8604 15.2308 11.9238 15.1862 12.0009C15.1466 12.0693 15.1218 12.1451 15.1136 12.2236C15.1042 12.3122 15.1239 12.4048 15.1633 12.5901L16.2261 17.5816C16.3596 18.2083 16.4263 18.5216 16.332 18.7012C16.25 18.8573 16.0996 18.9662 15.9253 18.9956C15.7247 19.0294 15.4462 18.8694 14.8891 18.5493L10.452 15.9999C10.2874 15.9053 10.205 15.8581 10.1175 15.8395C10.04 15.8232 9.95998 15.8232 9.88251 15.8395C9.79498 15.8581 9.71265 15.9053 9.54799 15.9999L5.11095 18.5493C4.5539 18.8694 4.27537 19.0294 4.07474 18.9956C3.90046 18.9662 3.75 18.8573 3.66808 18.7012C3.57378 18.5216 3.64049 18.2083 3.77392 17.5816L4.83669 12.5901C4.87614 12.4048 4.89586 12.3122 4.88649 12.2236C4.8782 12.1451 4.85347 12.0693 4.81389 12.0009C4.76916 11.9238 4.69855 11.8604 4.55734 11.7336L0.752309 8.31765C0.274608 7.88876 0.035752 7.67438 0.00605475 7.47385C-0.0197296 7.29964 0.0377312 7.12344 0.161383 6.99762C0.30374 6.85275 0.6235 6.81914 1.26302 6.7519L6.35689 6.21632C6.54596 6.19645 6.64048 6.18651 6.72222 6.15024C6.79454 6.11815 6.85929 6.07128 6.91229 6.01267C6.97217 5.94644 7.01087 5.85996 7.08828 5.68699L9.17367 1.02647Z" fill="#90C825"/>
</svg>
